<svg id="Capa_1" enable-background="new 0 0 443.951 443.951" height="512" viewBox="0 0 443.951 443.951" width="512" xmlns="http://www.w3.org/2000/svg"><g><g id="icon_28_"><path d="m313.073 224.832c-13.145 4.266-43.529-6.01-43.529-6.01s-30.611-42.852-65.51-40.27c-4.044.282-6.291.054-7.076-.617-5.225-4.158 50.605-25.609 50.605-25.609 28.043 9.482 51.886 28.476 67.394 53.691 6.762 11.398 4.402 16.736-1.884 18.815z" fill="#9a9eaf"/><path d="m313.073 224.832c-13.145 4.266-43.529-6.01-43.529-6.01s-30.611-42.852-65.51-40.27c-4.044.282-6.291.054-7.076-.617 14.58-7.418 29.55-14.044 44.845-19.848 28.043 9.482 51.885 28.476 67.394 53.691 2.803 3.753 4.177 8.381 3.876 13.054z" fill="#bbbbcd"/><path d="m310.036 128.624c-2.828 9.958-8.994 18.641-17.466 24.591-11.53 8.656-24.34 15.458-37.969 20.162-19.317 7.008-36.577 18.733-50.21 34.109-6.936 7.846-12.857 16.533-17.623 25.858-.964 1.978-3.35 2.8-5.328 1.836-.06-.029-.12-.06-.178-.092-1.524-.734-2.399-2.369-2.166-4.044 1.402-13.985 3.146-30.443 4.873-44.596 2.323-18.649-6.928-36.837-23.367-45.944-42.861-23.932-87.477-44.575-133.463-61.753-17.197-6.048-27.874-23.243-25.668-41.338.55-5.356 1.776-10.621 3.649-15.668.728-1.816 1.65-3.548 2.75-5.165 6.291-9.605 24.488-27.52 65.597-7.471 32.532 15.87 63.553 34.668 92.678 56.16l65.207 52.906c8.668 7.134 19.451 11.202 30.671 11.57 13.543.699 27.043-2.029 39.252-7.932 2.982-1.563 6.667-.412 8.229 2.571.684 1.303.872 2.809.532 4.24z" fill="#eaa14e"/><path d="m299.532 139.138c-1.299 5.132-3.672 9.93-6.963 14.077-11.53 8.656-24.34 15.458-37.969 20.162-19.317 7.008-36.577 18.733-50.21 34.109-9.02 8.025-16.816 17.328-23.14 27.612-1.524-.734-2.399-2.369-2.166-4.044 1.402-13.985 3.146-30.443 4.873-44.596 2.323-18.649-6.928-36.837-23.367-45.944-42.857-23.935-87.469-44.582-133.452-61.764-17.196-6.047-27.873-23.242-25.667-41.337.55-5.356 1.776-10.621 3.649-15.668.728-1.816 1.65-3.548 2.75-5.165 10.287-6.741 27.52-10.335 55.04 3.091 32.546 15.843 63.569 34.64 92.678 56.155l65.261 52.906c8.687 7.097 19.455 11.16 30.665 11.57 13.531.682 27.015-2.061 39.203-7.975 2.999-1.57 6.702-.412 8.273 2.586.681 1.299.873 2.797.542 4.225z" fill="#f6b863"/><path d="m442.767 316.179c0 70.567-57.206 127.772-127.772 127.772-70.567 0-127.772-57.206-127.772-127.772s57.206-127.772 127.772-127.772c70.553.032 127.739 57.219 127.772 127.772z" fill="#dbd8dd"/><path d="m314.979 432.717c-64.371 0-116.554-52.183-116.554-116.554s52.183-116.554 116.554-116.554 116.554 52.183 116.554 116.554v.016c-.08 64.335-52.219 116.466-116.554 116.538z" fill="#eeefee"/><g fill="#dbd8dd"><path d="m403.45 321.782c-3.099.003-5.614-2.505-5.62-5.604 0-1.855-.06-3.698-.179-5.528-.2-3.096 2.147-5.769 5.244-5.969 3.096-.2 5.769 2.147 5.969 5.244.13 2.063.2 4.153.2 6.248-.002 3.099-2.515 5.609-5.614 5.609z"/><path d="m398.518 292.649c-2.395-.005-4.524-1.526-5.306-3.79-7.523-21.367-23.407-38.76-44.006-48.185-2.784-1.372-3.928-4.742-2.556-7.525 1.314-2.666 4.477-3.848 7.217-2.696 23.375 10.702 41.402 30.437 49.95 54.682 1.02 2.935-.533 6.14-3.467 7.16-.591.205-1.213.311-1.838.312z"/><circle cx="314.979" cy="316.168" r="43.54"/></g><circle cx="314.979" cy="316.168" fill="#828a9e" r="21.072"/></g></g></svg>